<svg width="228" height="290" viewBox="0 0 228 290" fill="none" xmlns="http://www.w3.org/2000/svg">
<path d="M108.35 45.25C108.65 45.25 108.8 45.55 108.8 46.15C108.8 46.75 108.65 47.05 108.35 47.05C104.95 47.05 102 47.95 99.5 49.75C97 51.55 94.9 54.6 93.2 58.9L61.25 138.85C61.15 139.25 60.6 139.45 59.6 139.45C58.8 139.45 58.25 139.25 57.95 138.85L20.6 57.7C18.9 53.8 17.1 51.05 15.2 49.45C13.3 47.85 10.85 47.05 7.85 47.05C7.55 47.05 7.4 46.75 7.4 46.15C7.4 45.55 7.55 45.25 7.85 45.25L13.55 45.4C16.35 45.6 18.6 45.7 20.3 45.7C24.2 45.7 28.45 45.6 33.05 45.4L39.35 45.25C39.65 45.25 39.8 45.55 39.8 46.15C39.8 46.75 39.65 47.05 39.35 47.05C33.15 47.05 30.05 48.75 30.05 52.15C30.05 53.45 30.5 55.1 31.4 57.1L63.8 128.05L59.15 134.95L89.75 58C90.55 56.1 90.95 54.5 90.95 53.2C90.95 51.1 90 49.55 88.1 48.55C86.2 47.55 83.25 47.05 79.25 47.05C78.95 47.05 78.8 46.75 78.8 46.15C78.8 45.55 78.95 45.25 79.25 45.25L85.7 45.4C89.1 45.6 92.2 45.7 95 45.7C97.1 45.7 99.45 45.6 102.05 45.4L108.35 45.25Z" fill="black"/>
<path d="M106.4 128.45C106.4 126.983 106 125.833 105.2 125C104.433 124.167 103.383 123.75 102.05 123.75C99.4167 123.75 98.1 125.35 98.1 128.55C98.1 131.817 99.4 135.233 102 138.8C104.633 142.333 107.983 145.633 112.05 148.7C114.117 150.267 116.1 151.55 118 152.55C119.9 153.517 121.517 154.133 122.85 154.4C122.983 154.433 123.033 154.55 123 154.75C123 154.917 122.95 155 122.85 155H117.45C115.683 155 112.9 153.4 109.1 150.2C106.5 148.167 104.067 145.883 101.8 143.35C99.5333 140.817 97.8167 138.383 96.65 136.05C95.6833 133.95 95.2 132.15 95.2 130.65C95.2 129.217 95.55 127.9 96.25 126.7C96.95 125.467 97.9333 124.5 99.2 123.8C100.467 123.067 101.9 122.7 103.5 122.7C105.1 122.7 106.467 123.083 107.6 123.85C108.767 124.617 109.35 125.883 109.35 127.65C109.35 128.95 109.017 130.133 108.35 131.2C107.683 132.233 106.883 133.133 105.95 133.9C105.017 134.633 103.717 135.583 102.05 136.75C100.383 137.85 99.0333 138.817 98 139.65C97 140.483 96.15 141.467 95.45 142.6C94.75 143.733 94.4 145 94.4 146.4C94.4 147.8 94.75 149.1 95.45 150.3C96.1833 151.467 97.1833 152.4 98.45 153.1C99.7167 153.767 101.15 154.1 102.75 154.1C104.817 154.1 106.667 153.533 108.3 152.4C109.933 151.233 111.2 149.7 112.1 147.8C113.033 145.9 113.5 143.883 113.5 141.75C113.5 140.55 113.25 139.65 112.75 139.05C112.283 138.45 111.35 138.15 109.95 138.15C109.85 138.15 109.783 138.05 109.75 137.85C109.75 137.65 109.817 137.55 109.95 137.55L120.4 137.5C120.533 137.5 120.6 137.6 120.6 137.8C120.6 138 120.533 138.1 120.4 138.1C119.267 138.1 118.417 138.217 117.85 138.45C117.283 138.65 116.883 138.95 116.65 139.35C116.417 139.717 116.183 140.283 115.95 141.05C113.217 150.75 108.067 155.6 100.5 155.6C98.4333 155.6 96.7 155.25 95.3 154.55C93.9333 153.85 92.9 152.933 92.2 151.8C91.5333 150.667 91.2 149.45 91.2 148.15C91.2 146.717 91.55 145.417 92.25 144.25C92.95 143.083 93.8167 142.05 94.85 141.15C95.8833 140.25 97.2667 139.183 99 137.95C100.633 136.783 101.933 135.783 102.9 134.95C103.9 134.083 104.733 133.117 105.4 132.05C106.067 130.95 106.4 129.75 106.4 128.45Z" fill="black"/>
<path d="M127.77 174.74L130.89 175L129.59 238.83C129.503 243.423 130.283 246.673 131.93 248.58C133.577 250.487 136.48 251.44 140.64 251.44C140.813 251.44 140.9 251.7 140.9 252.22C140.9 252.74 140.813 253 140.64 253C138.213 253 136.35 252.957 135.05 252.87L128.03 252.74L121.27 252.87C120.057 252.957 118.323 253 116.07 253C115.897 253 115.81 252.74 115.81 252.22C115.81 251.7 115.897 251.44 116.07 251.44C119.71 251.44 122.31 250.487 123.87 248.58C125.517 246.587 126.383 243.337 126.47 238.83L127.77 174.74ZM216.56 251.44C216.82 251.44 216.95 251.7 216.95 252.22C216.95 252.74 216.82 253 216.56 253C213.873 253 211.75 252.957 210.19 252.87L201.22 252.74L192.9 252.87C191.513 252.957 189.563 253 187.05 253C186.877 253 186.79 252.74 186.79 252.22C186.79 251.7 186.877 251.44 187.05 251.44C189.997 251.44 192.163 251.223 193.55 250.79C195.023 250.27 195.977 249.403 196.41 248.19C196.93 246.977 197.103 245.07 196.93 242.47L194.46 179.68L198.75 173.7L164.95 252.09C164.777 252.437 164.43 252.61 163.91 252.61C163.477 252.61 163.087 252.437 162.74 252.09L130.11 182.54C128.637 179.333 126.817 176.993 124.65 175.52C122.57 174.047 120.013 173.31 116.98 173.31C116.807 173.31 116.72 173.05 116.72 172.53C116.72 172.01 116.807 171.75 116.98 171.75L121.79 171.88C122.657 171.967 123.87 172.01 125.43 172.01C126.99 172.01 128.29 171.967 129.33 171.88C130.457 171.793 131.323 171.75 131.93 171.75C133.057 171.75 133.967 172.183 134.66 173.05C135.44 173.83 136.523 175.65 137.91 178.51L167.55 240.91L163.52 247.67L195.24 175C196.193 172.833 197.493 171.75 199.14 171.75C199.573 171.75 200.18 171.793 200.96 171.88C201.827 171.967 202.953 172.01 204.34 172.01L210.45 171.88C211.403 171.793 212.833 171.75 214.74 171.75C214.913 171.75 215 172.01 215 172.53C215 173.05 214.913 173.31 214.74 173.31C210.32 173.31 207.157 173.96 205.25 175.26C203.43 176.473 202.607 178.813 202.78 182.28L205.38 242.47C205.467 245.157 205.77 247.107 206.29 248.32C206.897 249.533 207.937 250.357 209.41 250.79C210.883 251.223 213.267 251.44 216.56 251.44Z" fill="black"/>
<path d="M1 211.5V283H59" stroke="black" stroke-width="2"/>
<path d="M227 80.5V9H169" stroke="black" stroke-width="2"/>
</svg>
